<svg xmlns="http://www.w3.org/2000/svg" width="1280" height="720" viewBox="0 0 1280 720" fill="none">
  <rect width="1280" height="720" fill="#0f1117"/>
  <rect x="0" y="0" width="1280" height="54" fill="#1a1d27"/>
  <rect x="18" y="15" width="28" height="28" rx="8" fill="#2b3242"/>
  <circle cx="92" cy="29" r="8" fill="#55607a"/>
  <rect x="120" y="20" width="260" height="16" rx="8" fill="#2a2f3c"/>
  <rect x="48" y="86" width="204" height="584" rx="18" fill="#141821" stroke="#232938"/>
  <rect x="276" y="86" width="954" height="584" rx="18" fill="#11151d" stroke="#232938"/>
  <rect x="308" y="116" width="220" height="22" rx="8" fill="#2a3243"/>
  <text x="320" y="132" fill="#d8dde8" font-family="Inter, ui-sans-serif, system-ui" font-size="14" font-weight="600">Notion AI / Custom MCP</text>
  <text x="308" y="180" fill="#c7cfde" font-family="Inter, ui-sans-serif, system-ui" font-size="28" font-weight="700">Workflow approval</text>
  <text x="308" y="214" fill="#7f8aa2" font-family="Inter, ui-sans-serif, system-ui" font-size="15">One approval can batch many safe steps into a single job.</text>
  <rect x="308" y="250" width="558" height="294" rx="16" fill="#171c26" stroke="#2a3243"/>
  <text x="334" y="290" fill="#e2e8f4" font-family="SFMono-Regular, ui-monospace, monospace" font-size="15">description: poll cargo test job</text>
  <text x="334" y="324" fill="#e2e8f4" font-family="SFMono-Regular, ui-monospace, monospace" font-size="15">steps:</text>
  <text x="360" y="358" fill="#aab4c6" font-family="SFMono-Regular, ui-monospace, monospace" font-size="15">- tool: bash_status</text>
  <text x="360" y="390" fill="#aab4c6" font-family="SFMono-Regular, ui-monospace, monospace" font-size="15">- tool: signal</text>
  <text x="360" y="422" fill="#aab4c6" font-family="SFMono-Regular, ui-monospace, monospace" font-size="15">- tool: workflow_result</text>
  <text x="360" y="454" fill="#7f8aa2" font-family="SFMono-Regular, ui-monospace, monospace" font-size="15">job_id: job_4e52ffc4c5d4b7084cce128c2fecbcb</text>
  <rect x="308" y="570" width="104" height="34" rx="10" fill="#2a2f3c"/>
  <text x="332" y="592" fill="#e2e8f4" font-family="Inter, ui-sans-serif, system-ui" font-size="14" font-weight="600">Reject</text>
  <rect x="420" y="570" width="122" height="34" rx="10" fill="#2a7de1"/>
  <text x="443" y="592" fill="#ffffff" font-family="Inter, ui-sans-serif, system-ui" font-size="14" font-weight="700">Continue</text>
  <rect x="950" y="130" width="230" height="470" rx="18" fill="#151a24" stroke="#2a3243"/>
  <text x="980" y="170" fill="#9aa6bb" font-family="Inter, ui-sans-serif, system-ui" font-size="14">Bundled tools</text>
  <text x="980" y="202" fill="#e2e8f4" font-family="Inter, ui-sans-serif, system-ui" font-size="18" font-weight="700">workflow</text>
  <text x="980" y="232" fill="#7f8aa2" font-family="Inter, ui-sans-serif, system-ui" font-size="13">workflow_presets</text>
  <text x="980" y="256" fill="#7f8aa2" font-family="Inter, ui-sans-serif, system-ui" font-size="13">signal</text>
  <text x="980" y="280" fill="#7f8aa2" font-family="Inter, ui-sans-serif, system-ui" font-size="13">bash_status</text>
  <text x="980" y="304" fill="#7f8aa2" font-family="Inter, ui-sans-serif, system-ui" font-size="13">bash_result</text>
  <text x="980" y="334" fill="#9aa6bb" font-family="Inter, ui-sans-serif, system-ui" font-size="13">Permissions</text>
  <rect x="980" y="348" width="170" height="12" rx="6" fill="#24405e"/>
  <rect x="980" y="370" width="126" height="12" rx="6" fill="#305c41"/>
  <text x="980" y="415" fill="#9aa6bb" font-family="Inter, ui-sans-serif, system-ui" font-size="13">approval-sensitive steps stay visible</text>
  <text x="980" y="442" fill="#9aa6bb" font-family="Inter, ui-sans-serif, system-ui" font-size="13">while the job runs in background.</text>
</svg>
